# exported by https://3dviewer.net
mtllib model.mtl
g Mesh
v 3150 -1750 0
v 3150.000244140625 -5000 0
v 3150.00048828125 -10000 0
v 3149.99951171875 10000 -2000
v 3149.99951171875 10000 0
v 3150 1750 0
v 3149.99951171875 10000 -2000
v 3150 1750 0
v 3149.999755859375 1750 -1500
v 3150 -1750 0
v 3150.00048828125 -10000 0
v 3150.000244140625 -10000 -2000
v 3149.99951171875 10000 -2000
v 3149.999755859375 1750 -1500
v 3150 -1750 -1500
v 3150 -1750 -1500
v 3150 -1750 0
v 3150.000244140625 -10000 -2000
v 3150.000244140625 -10000 -2000
v 3149.99951171875 10000 -2000
v 3150 -1750 -1500
v -3149.99951171875 -10000 0.00027538175345398486
v -3149.999755859375 -5000 0.00027538175345398486
v -3150 -1750.000244140625 0.00027538175345398486
v -3149.99951171875 -10000 0.00027538175345398486
v -3150 -1750.000244140625 0.00027538175345398486
v -3150 -1750.000244140625 -1499.999755859375
v -3150 1749.999755859375 0.00027538175345398486
v -3150.00048828125 10000 0.00027538175345398486
v -3150.00048828125 10000 -1999.999755859375
v -3150.000244140625 1749.999755859375 -1499.999755859375
v -3150 1749.999755859375 0.00027538175345398486
v -3150.00048828125 10000 -1999.999755859375
v -3149.999755859375 -10000 -1999.999755859375
v -3149.99951171875 -10000 0.00027538175345398486
v -3150 -1750.000244140625 -1499.999755859375
v -3150 -1750.000244140625 -1499.999755859375
v -3150.000244140625 1749.999755859375 -1499.999755859375
v -3150.00048828125 10000 -1999.999755859375
v -3150 -1750.000244140625 -1499.999755859375
v -3150.00048828125 10000 -1999.999755859375
v -3149.999755859375 -10000 -1999.999755859375
v 3149.99951171875 10000 0
v 3149.99951171875 10000 -2000
v -3150.00048828125 10000 -1999.999755859375
v 3149.99951171875 10000 0
v -3150.00048828125 10000 -1999.999755859375
v -3150.00048828125 10000 0.00027538175345398486
v 3150 -1750 -1500
v 3149.999755859375 1750 -1500
v -3150.000244140625 1749.999755859375 -1499.999755859375
v 3150 -1750 -1500
v -3150.000244140625 1749.999755859375 -1499.999755859375
v -3150 -1750.000244140625 -1499.999755859375
v 3150.00048828125 -10000 0
v 3150.000244140625 -5000 0
v -3149.999755859375 -5000 0.00027538175345398486
v 3150.00048828125 -10000 0
v -3149.999755859375 -5000 0.00027538175345398486
v -3149.99951171875 -10000 0.00027538175345398486
v 3149.99951171875 10000 -2000
v 3150.000244140625 -10000 -2000
v -3149.999755859375 -10000 -1999.999755859375
v 3149.99951171875 10000 -2000
v -3149.999755859375 -10000 -1999.999755859375
v -3150.00048828125 10000 -1999.999755859375
v 3149.999755859375 1750 -1500
v 3150 1750 0
v -3150 1749.999755859375 0.00027538175345398486
v 3149.999755859375 1750 -1500
v -3150 1749.999755859375 0.00027538175345398486
v -3150.000244140625 1749.999755859375 -1499.999755859375
v 3150.000244140625 -5000 0
v 3150 -1750 0
v -3150 -1750.000244140625 0.00027538175345398486
v 3150.000244140625 -5000 0
v -3150 -1750.000244140625 0.00027538175345398486
v -3149.999755859375 -5000 0.00027538175345398486
v 3150.000244140625 -10000 -2000
v 3150.00048828125 -10000 0
v -3149.99951171875 -10000 0.00027538175345398486
v 3150.000244140625 -10000 -2000
v -3149.99951171875 -10000 0.00027538175345398486
v -3149.999755859375 -10000 -1999.999755859375
v 3150 1750 0
v 3149.99951171875 10000 0
v -3150.00048828125 10000 0.00027538175345398486
v 3150 1750 0
v -3150.00048828125 10000 0.00027538175345398486
v -3150 1749.999755859375 0.00027538175345398486
v 3150 -1750 0
v 3150 -1750 -1500
v -3150 -1750.000244140625 -1499.999755859375
v 3150 -1750 0
v -3150 -1750.000244140625 -1499.999755859375
v -3150 -1750.000244140625 0.00027538175345398486
vn 0 0 -1
vn 1 6.060606239088884e-8 0
vn 1 0 -1.627604149234685e-7
vn 1 1.2121212478177767e-7 -1.2207031829802872e-7
vn 1 1.4285714655670745e-7 6.62667446249543e-7
vn 1 0 0
vn 1 2.5000000292152436e-8 -1.1596679883041361e-7
vn 2.790178541545174e-7 0 1
vn -0.9999999403953552 -8.080807134547285e-8 0
vn -1 -6.060605528546148e-8 0
vn -1 -8.080807845090021e-8 1.627604149234685e-7
vn -1 -6.060606239088884e-8 1.2207031829802872e-7
vn -1 -1.4285697602645087e-7 -6.626666504416789e-7
vn -1 -2.5000000292152436e-8 1.1596679883041361e-7
vn 0 1 0
vn 0 1 0
vn 5.748653464365816e-8 2.703158479187514e-15 1
vn 4.535147368756043e-8 2.703158479187514e-15 1
vn 4.371139183945161e-8 2.134345573678387e-15 1
vn 4.371138118131057e-8 2.134344514887203e-15 0.9999999403953552
vn -6.349206671529828e-8 -1.4191582809827837e-15 -1
vn 0 -1.4191582809827837e-15 -1
vn 3.875248211215876e-8 -1 0
vn 3.875248211215876e-8 -1 9.042243931389748e-8
vn 4.371139183945161e-8 3.2836083468424943e-15 1
vn 4.371138118131057e-8 3.283607499809547e-15 1
vn 0 -1 6.349205818878545e-7
vn 0 -1 -3.875248353324423e-7
vn 4.371138828673793e-8 2.5870851075022842e-15 1
vn 4.371138473402425e-8 2.5870848957440474e-15 1
vn -3.875248211215876e-8 1 0
vn -3.875248211215876e-8 1 0
usemtl Material
f 1//1 2//1 3//1
f 4//2 5//2 6//2
f 7//3 8//3 9//3
f 10//4 11//4 12//4
f 13//5 14//5 15//5
f 16//6 17//6 18//6
f 19//7 20//7 21//7
f 22//8 23//8 24//8
f 25//9 26//9 27//9
f 28//10 29//10 30//10
f 31//11 32//11 33//11
f 34//12 35//12 36//12
f 37//13 38//13 39//13
f 40//14 41//14 42//14
f 43//15 44//15 45//15
f 46//16 47//16 48//16
f 49//17 50//17 51//17
f 52//18 53//18 54//18
f 55//19 56//19 57//19
f 58//20 59//20 60//20
f 61//21 62//21 63//21
f 64//22 65//22 66//22
f 67//23 68//23 69//23
f 70//24 71//24 72//24
f 73//25 74//25 75//25
f 76//26 77//26 78//26
f 79//27 80//27 81//27
f 82//28 83//28 84//28
f 85//29 86//29 87//29
f 88//30 89//30 90//30
f 91//31 92//31 93//31
f 94//32 95//32 96//32
