# Blender 4.0.2
# www.blender.org
mtllib LST2-MID.mtl
o LST2-RIGHT
v 3592.599609 -1674.997314 877.500366
v 3592.599609 -874.997253 877.500366
v 3592.599609 -874.997253 -877.499634
v 3592.599609 -1674.997314 -877.499634
v 3592.599609 -874.997253 997.500366
v 3592.599609 -1674.997314 997.500366
v 3592.599609 -1674.997314 -997.499634
v 3592.599609 -874.997253 -997.499634
v 3592.599609 -874.997253 877.500366
v 3592.599609 -874.997253 997.500366
v 3592.599609 -1674.997314 997.500366
v 3592.599609 -1674.997314 877.500366
v 3592.599609 -874.997253 -997.499634
v 3592.599609 -874.997253 -877.499634
v 3592.599609 -1674.997314 -877.499634
v 3592.599609 -1674.997314 -997.499634
v 3592.599609 -874.997253 -877.499634
v 3592.599609 -874.997253 -997.499634
v 3592.599609 -1674.997314 -997.499634
v 3592.599609 -1674.997314 -877.499634
v 3592.599609 -874.997253 997.500366
v 3592.599609 -874.997253 877.500366
v 3592.599609 -1674.997314 877.500366
v 3592.599609 -1674.997314 997.500366
v 2992.600098 -877.918701 -997.499634
v 2992.600098 -880.701111 -997.499634
v 2992.600098 -925.040344 -997.499634
v 2992.600098 -875.078979 877.500366
v 2992.600098 -875.078979 -877.499634
v 2992.600098 -874.997253 877.500366
v 2992.600098 -1674.997314 -997.499634
v 2992.600098 -1674.997314 -877.499634
v 2992.600098 -874.997253 997.500366
v 2992.600098 -874.997253 877.972046
v 2992.600098 -1674.997314 -996.931091
v 2992.600098 -1674.997314 997.500366
v 2992.600098 -1674.997314 877.500366
v 2992.600098 -874.997253 -997.499634
v 2992.600098 -874.997253 -877.971252
v 2992.600098 -874.997253 997.500366
v 2992.600098 -874.997253 877.500366
v 2992.600098 -878.787659 -877.499634
v 2992.600098 -1674.997314 -877.499634
v 2992.600098 -874.997253 -997.499634
v 2992.600098 -1674.997314 878.068909
v 2992.600098 -1674.997314 -997.499634
v 2992.600098 -874.997253 -877.499634
v 2992.600098 -1674.997314 997.500366
v 2992.600098 -877.918701 997.500366
v 2992.600098 -925.040344 997.500366
v 2992.600098 -880.701111 997.500366
v 2992.600098 -1674.997314 877.500366
v 2992.600098 -878.787659 877.500366
v 2992.600098 -1612.433594 997.500366
v 2992.600098 -1552.849121 997.500366
v 2992.600098 -1552.849121 -997.499634
v 2992.600098 -1612.433594 -997.499634
v 2992.600098 -874.997253 -877.499634
vn -0.0000 -0.0000 1.0000
vn -0.0000 -0.0000 -1.0000
vn -0.0000 1.0000 -0.0000
vn 1.0000 -0.0000 -0.0000
vn -0.0000 -1.0000 -0.0000
s 0
usemtl Chasis
f 43//1 4//1 3//1 42//1
f 29//1 42//1 3//1
f 58//1 29//1 3//1
f 54//1 6//1 55//1
f 51//1 50//1 5//1
f 49//1 51//1 5//1
f 36//1 6//1 54//1
f 40//1 49//1 5//1
f 57//2 7//2 46//2
f 56//2 7//2 57//2
f 33//3 10//3 9//3 34//3
f 30//3 34//3 9//3
f 39//3 14//3 13//3 38//3
f 39//3 47//3 14//3
f 17//4 20//4 19//4
f 18//4 17//4 19//4
f 21//4 24//4 23//4
f 22//4 21//4 23//4
f 2//2 1//2 52//2 53//2
f 5//1 50//1 55//1 6//1
f 12//5 11//5 48//5 45//5
f 12//5 45//5 37//5
f 16//5 15//5 32//5 35//5
f 16//5 35//5 31//5
f 2//2 53//2 28//2
f 2//2 28//2 41//2
f 8//2 7//2 56//2 27//2
f 8//2 27//2 26//2
f 8//2 26//2 25//2
f 8//2 25//2 44//2
